<svg width="300" height="49" viewBox="0 0 300 49" fill="none" xmlns="http://www.w3.org/2000/svg">
<g clip-path="url(#clip0_74_771)">
<path d="M45.3182 15.8711V37.9057H30.2638V48.923H43.7662C51.2157 48.923 57.2685 42.9135 57.2685 35.5173V15.8711H45.3182Z" fill="#858585"/>
<path d="M13.5023 0C6.05277 0 0 6.00943 0 13.4057V33.0519H11.9503V11.0173H27.0047V0H13.5023Z" fill="#575757"/>
<path d="M76.2804 24.5H77.134C78.298 24.5 79.2292 23.5755 79.2292 22.4198V19.1839V16.5645H68.21V19.1839H76.2804V24.5V24.5Z" fill="#4C4C4E"/>
<path d="M80.8588 25.2705H73.7972V21.1101H70.7708V25.2705H66.8908V27.967H80.8588V25.2705Z" fill="#4C4C4E"/>
<path d="M84.8939 15.6399H81.8676V29.3537C80.9364 28.8915 79.9276 28.6603 78.8412 28.6603C75.5044 28.6603 72.7108 31.0487 72.7108 33.9764C72.7108 36.904 75.4268 39.2924 78.8412 39.2924C82.178 39.2924 84.9715 36.904 84.9715 33.9764C84.9715 33.9764 84.9715 33.9764 84.9715 33.8993V23.8836H87.9203V21.2641H84.9715V15.6399H84.8939ZM78.7636 36.75C77.0564 36.75 75.6596 35.5173 75.6596 34.0534C75.6596 32.5896 77.0564 31.3569 78.7636 31.3569C80.4708 31.3569 81.8676 32.5896 81.8676 34.0534C81.8676 35.5173 80.4708 36.75 78.7636 36.75Z" fill="#4C4C4E"/>
<path d="M89.4723 30.7406H96.9219V38.445H97.9307C99.0947 38.445 100.103 37.4434 100.103 36.2878V30.7406H107.553V28.0441H89.5499V30.7406H89.4723Z" fill="#4C4C4E"/>
<path d="M95.5251 21.3412L89.8603 24.423L91.1019 26.7343L97.6203 23.2673C97.9307 23.1132 98.3187 22.8821 98.4739 22.5739C98.7067 22.8821 99.0171 23.1132 99.3275 23.2673L105.846 26.7343L107.087 24.423L101.423 21.3412C100.647 20.956 100.181 20.1085 100.181 19.184H106.234V16.4874H90.7915V19.261H96.8443C96.7667 20.1085 96.3011 20.956 95.5251 21.3412Z" fill="#4C4C4E"/>
<path d="M110.347 28.3523H117.641V29.1997C114.77 29.739 112.675 31.6651 112.675 34.0535C112.675 36.8271 115.623 39.0614 119.348 39.0614C122.995 39.0614 126.022 36.8271 126.022 34.0535C126.022 31.7422 123.927 29.8161 121.055 29.1997V28.3523H128.35V25.8868H110.347V28.3523ZM122.84 34.0535C122.84 35.4403 121.288 36.596 119.348 36.596C117.408 36.596 115.856 35.4403 115.856 34.0535C115.856 32.6667 117.408 31.5111 119.348 31.5111C121.288 31.5111 122.84 32.6667 122.84 34.0535Z" fill="#4C4C4E"/>
<path d="M116.477 20.3396L110.735 22.9591L111.976 25.2704L118.495 22.2657C118.805 22.1116 119.193 21.8805 119.348 21.6494C119.581 21.8805 119.891 22.1116 120.202 22.2657L126.72 25.2704L127.962 22.9591L122.219 20.3396C121.599 20.0315 121.211 19.6462 121.055 19.184H127.031V16.4874H111.588V19.261H117.563C117.486 19.7233 117.098 20.0315 116.477 20.3396Z" fill="#4C4C4E"/>
<path d="M147.905 15.6399H144.878V29.0456C143.947 28.5833 142.938 28.3522 141.852 28.3522C138.515 28.3522 135.722 30.7405 135.722 33.6682C135.722 36.5959 138.438 38.9842 141.852 38.9842C145.189 38.9842 147.905 36.5959 147.905 33.6682C147.905 33.6682 147.905 33.6682 147.905 33.5911V23.8836H150.854V21.2641H147.905V15.6399ZM141.852 36.3647C140.145 36.3647 138.748 35.132 138.748 33.6682C138.748 32.2044 140.145 30.9717 141.852 30.9717C143.559 30.9717 144.956 32.2044 144.956 33.6682C144.878 35.2091 143.559 36.3647 141.852 36.3647Z" fill="#4C4C4E"/>
<path d="M142.628 21.7264C142.628 18.4906 139.912 15.8711 136.498 15.8711C133.083 15.8711 130.367 18.4906 130.367 21.7264C130.367 24.9623 133.083 27.5818 136.498 27.5818C139.912 27.6588 142.628 25.0393 142.628 21.7264ZM133.394 21.7264C133.394 20.0315 134.79 18.6447 136.575 18.6447C138.282 18.6447 139.679 20.0315 139.679 21.7264C139.679 23.4214 138.282 24.8082 136.575 24.8082C134.79 24.8852 133.394 23.4985 133.394 21.7264Z" fill="#4C4C4E"/>
<path d="M247.853 28.1981H248.707C249.871 28.1981 250.802 27.2736 250.802 26.1179V19.1839V16.5645H239.705V19.1839H247.775V28.1981H247.853Z" fill="#4C4C4E"/>
<path d="M256.389 15.7169H253.363V30.6635H245.215V25.5015H242.188V30.6635H238.464V33.36H253.363V38.3679H254.294C255.458 38.3679 256.389 37.4433 256.389 36.2877V26.2719H259.415V23.6525H256.389V15.7169Z" fill="#4C4C4E"/>
<path d="M180.109 23.3443C180.186 23.4214 180.264 23.4984 180.341 23.5755L184.765 27.967L186.627 26.1179L182.437 21.9575C181.971 21.4953 181.738 20.8789 181.738 20.2626V16.5645H178.401V20.4167C178.401 21.033 178.091 21.5723 177.703 21.9575L173.125 26.5031L174.987 28.3522L179.798 23.5755C179.876 23.4984 180.031 23.4214 180.109 23.3443Z" fill="#4C4C4E"/>
<path d="M191.205 15.6399H188.179V29.0456C187.248 28.5833 186.239 28.3522 185.153 28.3522C181.816 28.3522 179.1 30.7405 179.1 33.6682C179.1 36.5959 181.816 38.9842 185.153 38.9842C188.489 38.9842 191.283 36.5959 191.283 33.6682C191.283 33.6682 191.283 33.6682 191.283 33.5911V23.8836H194.232V21.2641H191.283V15.6399H191.205ZM185.153 36.3647C183.445 36.3647 182.049 35.132 182.049 33.6682C182.049 32.2044 183.445 30.9717 185.153 30.9717C186.86 30.9717 188.257 32.2044 188.257 33.6682C188.257 35.2091 186.86 36.3647 185.153 36.3647Z" fill="#4C4C4E"/>
<path d="M211.226 30.5864H196.327V33.283H211.226V38.2908H212.157C213.321 38.2908 214.252 37.3663 214.252 36.2106V15.7169H211.226V30.5864Z" fill="#4C4C4E"/>
<path d="M202.845 28.4292C206.26 28.4292 208.976 25.8097 208.976 22.5738C208.976 19.338 206.26 16.7185 202.845 16.7185C199.431 16.7185 196.715 19.338 196.715 22.5738C196.715 25.8097 199.431 28.4292 202.845 28.4292ZM202.845 19.415C204.553 19.415 205.949 20.8018 205.949 22.5738C205.949 24.2688 204.553 25.6556 202.845 25.6556C201.138 25.6556 199.741 24.2688 199.741 22.5738C199.741 20.8018 201.138 19.415 202.845 19.415Z" fill="#4C4C4E"/>
<path d="M276.099 30.5864H261.2V33.283H276.099V38.2908H277.031C278.195 38.2908 279.126 37.3663 279.126 36.2106V15.7169H276.099V30.5864Z" fill="#4C4C4E"/>
<path d="M267.719 28.4292C271.133 28.4292 273.849 25.8097 273.849 22.5738C273.849 19.338 271.133 16.7185 267.719 16.7185C264.304 16.7185 261.588 19.338 261.588 22.5738C261.588 25.8097 264.382 28.4292 267.719 28.4292ZM267.719 19.415C269.426 19.415 270.823 20.8018 270.823 22.5738C270.823 24.2688 269.426 25.6556 267.719 25.6556C266.011 25.6556 264.615 24.2688 264.615 22.5738C264.615 20.8018 266.011 19.415 267.719 19.415Z" fill="#4C4C4E"/>
<path d="M170.719 15.6399H167.615V17.9512H163.968C162.882 16.6415 161.174 15.871 159.234 15.871C155.82 15.871 153.104 18.4905 153.104 21.7264C153.104 24.9622 155.82 27.5817 159.234 27.5817C161.097 27.5817 162.804 26.7342 163.968 25.5015H167.615V29.0456C166.684 28.5833 165.675 28.3522 164.589 28.3522C161.252 28.3522 158.458 30.7405 158.458 33.6682C158.458 36.5959 161.174 38.9842 164.589 38.9842C167.926 38.9842 170.641 36.5959 170.641 33.6682C170.641 33.6682 170.641 33.6682 170.641 33.5911V15.6399H170.719ZM159.312 24.8852C157.605 24.8852 156.208 23.4984 156.208 21.8034C156.208 20.1084 157.605 18.7217 159.312 18.7217C161.019 18.7217 162.416 20.1084 162.416 21.8034C162.494 23.4984 161.097 24.8852 159.312 24.8852ZM165.287 23.0361C165.365 22.6509 165.442 22.1886 165.442 21.8034C165.442 21.4182 165.365 20.9559 165.287 20.5707H167.615V23.1132H165.287V23.0361ZM164.589 36.3647C162.882 36.3647 161.485 35.132 161.485 33.6682C161.485 32.2044 162.882 30.9717 164.589 30.9717C166.296 30.9717 167.693 32.2044 167.693 33.6682C167.693 35.2091 166.296 36.3647 164.589 36.3647Z" fill="#4C4C4E"/>
<path d="M218.908 32.6666H231.712V38.3679H232.644C233.808 38.3679 234.739 37.4434 234.739 36.2877V32.6666V30.5094V29.9701H218.831V32.6666H218.908Z" fill="#4C4C4E"/>
<path d="M230.393 16.7956H225.504V14.4072H222.4V16.7956H217.512V19.338H230.393V16.7956Z" fill="#4C4C4E"/>
<path d="M223.952 28.4292C226.901 28.4292 229.384 26.5031 229.384 24.1148C229.384 21.7264 226.979 19.8003 223.952 19.8003C220.926 19.8003 218.52 21.7264 218.52 24.1148C218.52 26.5031 221.004 28.4292 223.952 28.4292ZM223.952 22.1116C225.349 22.1116 226.436 23.0361 226.436 24.1148C226.436 25.1934 225.349 26.1179 223.952 26.1179C222.556 26.1179 221.469 25.1934 221.469 24.1148C221.469 22.9591 222.556 22.1116 223.952 22.1116Z" fill="#4C4C4E"/>
<path d="M234.739 15.6399H231.712V28.5833H234.739V23.1902H237.687V20.5707H234.739V15.6399Z" fill="#4C4C4E"/>
<path d="M287.118 31.2029H288.05C289.214 31.2029 290.145 30.2783 290.145 29.1227V27.89H295.577V25.4246H281.609V27.89H287.041V31.2029H287.118Z" fill="#4C4C4E"/>
<path d="M287.739 35.2862V31.9733H284.713V37.7516H285.954H287.739H300V35.2862H287.739Z" fill="#4C4C4E"/>
<path d="M288.67 24.8852C291.774 24.8852 294.335 22.8821 294.335 20.4167C294.335 17.9513 291.774 15.9481 288.67 15.9481C285.566 15.9481 283.006 17.9513 283.006 20.4167C283.006 22.9591 285.566 24.8852 288.67 24.8852ZM288.67 18.4135C290.145 18.4135 291.309 19.3381 291.309 20.4937C291.309 21.6494 290.145 22.5739 288.67 22.5739C287.196 22.5739 286.032 21.6494 286.032 20.4937C286.032 19.3381 287.196 18.4135 288.67 18.4135Z" fill="#4C4C4E"/>
<path d="M292.938 28.8144V31.2028H296.663V32.8978H299.612V15.6399H296.663V28.8144H292.938Z" fill="#4C4C4E"/>
</g>
<defs>
<clipPath id="clip0_74_771">
<rect width="300" height="49" fill="white"/>
</clipPath>
</defs>
</svg>
